<?xml version="1.0" encoding="iso-8859-1"?>
<!-- Uploaded to: SVG Repo, www.svgrepo.com, Generator: SVG Repo Mixer Tools -->
<svg fill="#000000" height="800px" width="800px" version="1.1" id="Capa_1" xmlns="http://www.w3.org/2000/svg" xmlns:xlink="http://www.w3.org/1999/xlink" 
	 viewBox="0 0 60.032 60.032" xml:space="preserve">
<g>
	<path d="M56.661,17.515c-2.245,0-32.292,0-36.224,0c-3.93,0-11.428,9.674-11.428,9.674s-4.296,0.719-7.103,2.401
		c-2.806,1.688-1.684,8.423-1.684,8.423h4.352c0-2.791,2.263-5.052,5.054-5.052c2.792,0,5.055,2.265,5.055,5.052h30.958
		c0-2.791,2.262-5.052,5.053-5.052c2.793,0,5.056,2.265,5.056,5.052h4.282V25.66C60.032,25.66,58.909,17.515,56.661,17.515z
		 M4.166,32.012H1.839v-1.477h2.328L4.166,32.012L4.166,32.012z M25.847,25.412H13.42c0,0,4.423-5.614,6.529-5.614
		c2.105,0,5.898,0,5.898,0L25.847,25.412L25.847,25.412z M38.134,25.412h-9.76v-5.613h9.76V25.412z M48.872,25.347h-9.533v-5.613
		h9.533V25.347z M50.066,25.412v-5.613h5.896l1.264,5.616L50.066,25.412L50.066,25.412z M58.62,34.958h-0.786v-9.3h0.786V34.958z
		 M9.51,33.517c-2.485,0-4.5,2.014-4.5,4.496c0,2.486,2.015,4.504,4.5,4.504s4.501-2.018,4.501-4.504
		C14.011,35.531,11.994,33.517,9.51,33.517z M9.509,39.989c-1.089,0-1.973-0.885-1.973-1.977c0-1.088,0.885-1.972,1.973-1.972
		s1.974,0.884,1.974,1.972C11.483,39.105,10.596,39.989,9.509,39.989z M50.553,33.517c-2.482,0-4.498,2.014-4.498,4.496
		c0,2.486,2.016,4.504,4.498,4.504s4.498-2.018,4.498-4.504C55.052,35.531,53.036,33.517,50.553,33.517z M50.553,39.989
		c-1.086,0-1.975-0.885-1.975-1.977c0-1.088,0.889-1.972,1.975-1.972c1.088,0,1.974,0.884,1.974,1.972
		C52.524,39.105,51.639,39.989,50.553,39.989z M15,38.437h30.917v1.474H15V38.437z"/>
</g>
</svg>